<?xml version="1.0" encoding="utf-8"?>
<!-- Generator: Adobe Illustrator 18.1.0, SVG Export Plug-In . SVG Version: 6.00 Build 0)  -->
<!DOCTYPE svg PUBLIC "-//W3C//DTD SVG 1.1//EN" "http://www.w3.org/Graphics/SVG/1.1/DTD/svg11.dtd">
<svg version="1.1" id="Layer_1" xmlns="http://www.w3.org/2000/svg" xmlns:xlink="http://www.w3.org/1999/xlink" x="0px" y="0px"
	 viewBox="-271.5 326.2 604.5 271.2" enable-background="new -271.5 326.2 604.5 271.2" xml:space="preserve">
<path fill="#E85113" stroke="#F9F9F9" stroke-width="15" stroke-miterlimit="10" d="M317.4,483.9c-1.9-6.2-3.4-14.4-3.4-23.5
	c0-8.6,1.4-17.3,3.4-23.5l10.6-31.2c6.7-18.7,2.9-40.8-8.2-51.4c-4.8-4.8-11.5-7.2-19.2-7.2c-10.6,0-21.6,4.8-30.2,13l-33.6,32.6
	c-35.5-26.9-90.3-46.6-131.1-46.6C-34,346.1-90.2,451.3-92.6,456.1l-2.4,4.8l2.4,4.8c2.4,4.3,58.6,109.9,198.3,109.9
	c40.8,0,95.5-19.7,131.1-46.6l33.6,32.6c8.6,8.2,19.7,13,30.2,13c7.7,0,14.4-2.4,19.2-7.2c11-10.6,14.4-32.6,8.2-51.4L317.4,483.9z
	 M37,513.7c-29.8,0-53.3-24-53.3-53.3c0-29.8,24-53.3,53.3-53.3s53.3,24,53.3,53.3C90.8,490.2,66.8,513.7,37,513.7z"/>
<circle stroke="#F9F9F9" stroke-width="15" stroke-miterlimit="10" cx="37" cy="460.4" r="29.3"/>
<text transform="matrix(1 0 0 1 -284.1489 584.848)" fill="#E85113" stroke="#F9F9F9" stroke-miterlimit="10" font-family="'BubblegumSans-Regular'" font-size="371">L</text>
<text transform="matrix(1 0 0 1 -284.1489 584.848)" fill="none" stroke="#F9F9F9" stroke-width="15" stroke-miterlimit="10" font-family="'BubblegumSans-Regular'" font-size="371">L</text>
</svg>
