<?xml version="1.0" encoding="utf-8"?>
<!-- Generator: Adobe Illustrator 18.1.0, SVG Export Plug-In . SVG Version: 6.00 Build 0)  -->
<!DOCTYPE svg PUBLIC "-//W3C//DTD SVG 1.1//EN" "http://www.w3.org/Graphics/SVG/1.1/DTD/svg11.dtd">
<svg version="1.1" id="Layer_1" xmlns="http://www.w3.org/2000/svg" xmlns:xlink="http://www.w3.org/1999/xlink" x="0px" y="0px"
	 viewBox="0 462.4 640 16.6" enable-background="new 0 462.4 640 16.6" xml:space="preserve">
<g>
	<g>
		<path fill="#5C9AB5" d="M176.3,465.4c-3.4,1.4-7,2.8-11.3,2.8c-8.4,0-13.9-5.6-22.3-5.6c-8.4,0-13.9,5.6-22.3,5.6
			c-8.4,0-13.9-5.6-22.3-5.6s-13.9,5.6-22.3,5.6s-13.9-5.6-22.3-5.6c-8.4,0-13.9,5.6-22.3,5.6s-13.9-5.6-22.3-5.6
			s-13.9,5.6-22.3,5.6c-4.2,0-7.6-1.4-11.3-2.8v16.7c3.4,1.4,7,2.8,11.3,2.8c8.4,0,13.9-5.6,22.3-5.6s13.9,5.6,22.3,5.6
			s13.9-5.6,22.3-5.6c8.4,0,13.9,5.6,22.3,5.6c8.4,0,13.9-5.6,22.3-5.6s13.9,5.6,22.3,5.6c8.4,0,13.9-5.6,22.3-5.6
			c8.4,0,13.9,5.6,22.3,5.6c4.2,0,7.6-1.4,11.3-2.8V465.4z"/>
	</g>
</g>
<g>
	<g>
		<path fill="#5C9AB5" d="M354.8,465.4c-3.4,1.4-7,2.8-11.3,2.8c-8.4,0-13.9-5.6-22.3-5.6c-8.4,0-13.9,5.6-22.3,5.6
			c-8.4,0-13.9-5.6-22.3-5.6c-8.4,0-13.9,5.6-22.3,5.6c-8.4,0-13.9-5.6-22.3-5.6c-8.4,0-13.9,5.6-22.3,5.6s-13.9-5.6-22.3-5.6
			s-13.9,5.6-22.3,5.6c-4.2,0-7.6-1.4-11.3-2.8v16.7c3.4,1.4,7,2.8,11.3,2.8c8.4,0,13.9-5.6,22.3-5.6s13.9,5.6,22.3,5.6
			s13.9-5.6,22.3-5.6c8.4,0,13.9,5.6,22.3,5.6c8.4,0,13.9-5.6,22.3-5.6c8.4,0,13.9,5.6,22.3,5.6s13.9-5.6,22.3-5.6
			s13.9,5.6,22.3,5.6c4.2,0,7.6-1.4,11.3-2.8V465.4z"/>
	</g>
</g>
<g>
	<g>
		<path fill="#5C9AB5" d="M533.6,465.4c-3.4,1.4-7,2.8-11.3,2.8c-8.4,0-13.9-5.6-22.3-5.6c-8.4,0-13.9,5.6-22.3,5.6
			c-8.4,0-13.9-5.6-22.3-5.6c-8.4,0-13.9,5.6-22.3,5.6c-8.4,0-13.9-5.6-22.3-5.6c-8.4,0-13.9,5.6-22.3,5.6c-8.4,0-13.9-5.6-22.3-5.6
			c-8.4,0-13.9,5.6-22.3,5.6c-4.2,0-7.6-1.4-11.3-2.8v16.7c3.4,1.4,7,2.8,11.3,2.8c8.4,0,13.9-5.6,22.3-5.6c8.4,0,13.9,5.6,22.3,5.6
			c8.4,0,13.9-5.6,22.3-5.6s13.9,5.6,22.3,5.6c8.4,0,13.9-5.6,22.3-5.6c8.4,0,13.9,5.6,22.3,5.6s13.9-5.6,22.3-5.6
			c8.4,0,13.9,5.6,22.3,5.6c4.2,0,7.6-1.4,11.3-2.8V465.4z"/>
	</g>
</g>
<g>
	<g>
		<path fill="#5C9AB5" d="M712.2,465.4c-3.4,1.4-7,2.8-11.3,2.8c-8.4,0-13.9-5.6-22.3-5.6c-8.4,0-13.9,5.6-22.3,5.6
			c-8.4,0-13.9-5.6-22.3-5.6c-8.4,0-13.9,5.6-22.3,5.6s-13.9-5.6-22.3-5.6c-8.4,0-13.9,5.6-22.3,5.6c-8.4,0-13.9-5.6-22.3-5.6
			s-13.9,5.6-22.3,5.6c-4.2,0-7.6-1.4-11.3-2.8v16.7c3.4,1.4,7,2.8,11.3,2.8c8.4,0,13.9-5.6,22.3-5.6s13.9,5.6,22.3,5.6
			c8.4,0,13.9-5.6,22.3-5.6c8.4,0,13.9,5.6,22.3,5.6s13.9-5.6,22.3-5.6c8.4,0,13.9,5.6,22.3,5.6c8.4,0,13.9-5.6,22.3-5.6
			s13.9,5.6,22.3,5.6c4.2,0,7.6-1.4,11.3-2.8V465.4z"/>
	</g>
</g>
<g>
	<g>
		<path fill="#6DB6D6" d="M154.2,465.4c-3.4,1.4-7,2.8-11.3,2.8c-8.4,0-13.9-5.6-22.3-5.6c-8.4,0-13.9,5.6-22.3,5.6
			c-8.4,0-13.9-5.6-22.3-5.6s-13.9,5.6-22.3,5.6s-13.9-5.6-22.3-5.6c-8.4,0-13.9,5.6-22.3,5.6s-13.9-5.6-22.3-5.6
			s-13.9,5.6-22.3,5.6c-4.2,0-7.6-1.4-11.3-2.8v16.7c3.4,1.4,7,2.8,11.3,2.8c8.4,0,13.9-5.6,22.3-5.6s13.9,5.6,22.3,5.6
			s13.9-5.6,22.3-5.6c8.4,0,13.9,5.6,22.3,5.6c8.4,0,13.9-5.6,22.3-5.6s13.9,5.6,22.3,5.6c8.4,0,13.9-5.6,22.3-5.6
			c8.4,0,13.9,5.6,22.3,5.6c4.2,0,7.6-1.4,11.3-2.8V465.4z"/>
	</g>
</g>
<g>
	<g>
		<path fill="#6DB6D6" d="M332.7,465.4c-3.4,1.4-7,2.8-11.3,2.8c-8.4,0-13.9-5.6-22.3-5.6c-8.4,0-13.9,5.6-22.3,5.6
			c-8.4,0-13.9-5.6-22.3-5.6s-13.9,5.6-22.3,5.6s-13.9-5.6-22.3-5.6c-8.4,0-13.9,5.6-22.3,5.6s-13.9-5.6-22.3-5.6
			s-13.9,5.6-22.3,5.6c-4.2,0-7.6-1.4-11.3-2.8v16.7c3.4,1.4,7,2.8,11.3,2.8c8.4,0,13.9-5.6,22.3-5.6s13.9,5.6,22.3,5.6
			s13.9-5.6,22.3-5.6c8.4,0,13.9,5.6,22.3,5.6c8.4,0,13.9-5.6,22.3-5.6s13.9,5.6,22.3,5.6s13.9-5.6,22.3-5.6
			c8.4,0,13.9,5.6,22.3,5.6c4.2,0,7.6-1.4,11.3-2.8V465.4z"/>
	</g>
</g>
<g>
	<g>
		<path fill="#6DB6D6" d="M511.4,465.4c-3.4,1.4-7,2.8-11.3,2.8c-8.4,0-13.9-5.6-22.3-5.6s-13.9,5.6-22.3,5.6
			c-8.4,0-13.9-5.6-22.3-5.6c-8.4,0-13.9,5.6-22.3,5.6c-8.4,0-13.9-5.6-22.3-5.6c-8.4,0-13.9,5.6-22.3,5.6c-8.4,0-13.9-5.6-22.3-5.6
			c-8.4,0-13.9,5.6-22.3,5.6c-4.2,0-7.6-1.4-11.3-2.8v16.7c3.4,1.4,7,2.8,11.3,2.8c8.4,0,13.9-5.6,22.3-5.6c8.4,0,13.9,5.6,22.3,5.6
			c8.4,0,13.9-5.6,22.3-5.6s13.9,5.6,22.3,5.6c8.4,0,13.9-5.6,22.3-5.6c8.4,0,13.9,5.6,22.3,5.6s13.9-5.6,22.3-5.6
			c8.4,0,13.9,5.6,22.3,5.6c4.2,0,7.6-1.4,11.3-2.8V465.4z"/>
	</g>
</g>
<g>
	<g>
		<path fill="#6DB6D6" d="M690,465.4c-3.4,1.4-7,2.8-11.3,2.8c-8.4,0-13.9-5.6-22.3-5.6c-8.4,0-13.9,5.6-22.3,5.6
			c-8.4,0-13.9-5.6-22.3-5.6c-8.4,0-13.9,5.6-22.3,5.6s-13.9-5.6-22.3-5.6c-8.4,0-13.9,5.6-22.3,5.6c-8.4,0-13.9-5.6-22.3-5.6
			s-13.9,5.6-22.3,5.6c-4.2,0-7.6-1.4-11.3-2.8v16.7c3.4,1.4,7,2.8,11.3,2.8c8.4,0,13.9-5.6,22.3-5.6s13.9,5.6,22.3,5.6
			c8.4,0,13.9-5.6,22.3-5.6c8.4,0,13.9,5.6,22.3,5.6c8.4,0,13.9-5.6,22.3-5.6c8.4,0,13.9,5.6,22.3,5.6c8.4,0,13.9-5.6,22.3-5.6
			s13.9,5.6,22.3,5.6c4.2,0,7.6-1.4,11.3-2.8V465.4z"/>
	</g>
</g>
</svg>
