<?xml version="1.0" encoding="utf-8"?>
<!-- Generator: Adobe Illustrator 18.1.0, SVG Export Plug-In . SVG Version: 6.00 Build 0)  -->
<!DOCTYPE svg PUBLIC "-//W3C//DTD SVG 1.1//EN" "http://www.w3.org/Graphics/SVG/1.1/DTD/svg11.dtd">
<svg version="1.1" id="Ebene_1" xmlns="http://www.w3.org/2000/svg" xmlns:xlink="http://www.w3.org/1999/xlink" x="0px" y="0px"
	 viewBox="0.9 459.7 480 37.8" enable-background="new 0.9 459.7 480 37.8" xml:space="preserve">
<g>
	<g>
		<rect x="-0.6" y="472.7" fill="#7ACCF0" width="481.9" height="26.1"/>
	</g>
</g>
<g>
	<g>
		<rect x="-2" y="463" fill="#7ACCF0" width="16.8" height="11.2"/>
	</g>
</g>
<g>
	<g>
		<rect x="79.1" y="467" fill="#7ACCF0" width="13" height="6"/>
	</g>
</g>
<g>
	<g>
		<rect x="157.4" y="467" fill="#7ACCF0" width="12.5" height="6"/>
	</g>
</g>
<g>
	<g>
		<rect x="235.6" y="467" fill="#7ACCF0" width="10.6" height="6.9"/>
	</g>
</g>
<g>
	<g>
		<rect x="312.4" y="467" fill="#7ACCF0" width="12" height="6.9"/>
	</g>
</g>
<g>
	<g>
		<rect x="390.2" y="467" fill="#7ACCF0" width="11" height="6"/>
	</g>
</g>
<g>
	<g>
		<rect x="467.4" y="462.4" fill="#7ACCF0" width="13.4" height="11.2"/>
	</g>
</g>
<path fill="#7ACCF0" d="M466,461.1c0,6.3-13.9,11.3-31.2,11.3s-31.2-5.2-31.2-11.3h-15.4l0,0l0,0c0,6.3-13.9,11.3-31.2,11.3
	s-31.2-5.2-31.2-11.3h-15.4c0,6.3-13.9,11.3-31.2,11.3s-31.2-5.2-31.2-11.3l0,0h-15.4c0,6.3-13.9,11.3-31.2,11.3
	s-31.2-5.2-31.2-11.3l0,0l0,0H155c0,6.3-13.9,11.3-31.2,11.3s-31.2-5.2-31.2-11.3H77.2l0,0l0,0c0,6.3-13.9,11.3-31.2,11.3
	c-17.3,0-31.2-5.2-31.2-11.3H-0.6c0,9.5,20.6,17,46.6,17c16.3,0,30.2-2.9,38.9-7.7c8.2,4.5,22.6,7.7,38.9,7.7
	c16.3,0,30.2-2.9,38.9-7.7c8.2,4.5,22.6,7.7,38.9,7.7c16.3,0,30.2-2.9,38.9-7.7c8.2,4.5,22.6,7.7,38.9,7.7s30.2-2.9,38.9-7.7
	c8.2,4.5,22.6,7.7,38.9,7.7c16.3,0,30.2-2.9,38.9-7.7c8.2,4.5,22.6,7.7,38.9,7.7c25.4,0,46.6-7.7,46.6-17H466L466,461.1z"/>
</svg>
