<?xml version="1.0" encoding="utf-8"?>
<!-- Generator: Adobe Illustrator 18.1.0, SVG Export Plug-In . SVG Version: 6.00 Build 0)  -->
<!DOCTYPE svg PUBLIC "-//W3C//DTD SVG 1.1//EN" "http://www.w3.org/Graphics/SVG/1.1/DTD/svg11.dtd">
<svg version="1.1" id="Layer_1" xmlns="http://www.w3.org/2000/svg" xmlns:xlink="http://www.w3.org/1999/xlink" x="0px" y="0px"
	 viewBox="-269 212.5 100 8.3" enable-background="new -269 212.5 100 8.3" xml:space="preserve">
<path fill="#6DB6D6" d="M-169,214.3c-1.7,0.7-3.5,1.4-5.6,1.4c-4.2,0-6.9-2.8-11.1-2.8c-4.2,0-6.9,2.8-11.1,2.8
	c-4.2,0-6.9-2.8-11.1-2.8s-6.9,2.8-11.1,2.8s-6.9-2.8-11.1-2.8c-4.2,0-6.9,2.8-11.1,2.8s-6.9-2.8-11.1-2.8s-6.9,2.8-11.1,2.8
	c-2.1,0-3.8-0.7-5.6-1.4v8.3c1.7,0.7,3.5,1.4,5.6,1.4c4.2,0,6.9-2.8,11.1-2.8s6.9,2.8,11.1,2.8s6.9-2.8,11.1-2.8
	c4.2,0,6.9,2.8,11.1,2.8c4.2,0,6.9-2.8,11.1-2.8s6.9,2.8,11.1,2.8c4.2,0,6.9-2.8,11.1-2.8c4.2,0,6.9,2.8,11.1,2.8
	c2.1,0,3.8-0.7,5.6-1.4V214.3z"/>
</svg>
