<?xml version="1.0" encoding="utf-8"?>
<!-- Generator: Adobe Illustrator 18.1.0, SVG Export Plug-In . SVG Version: 6.00 Build 0)  -->
<!DOCTYPE svg PUBLIC "-//W3C//DTD SVG 1.1//EN" "http://www.w3.org/Graphics/SVG/1.1/DTD/svg11.dtd">
<svg version="1.1" id="Layer_1" xmlns="http://www.w3.org/2000/svg" xmlns:xlink="http://www.w3.org/1999/xlink" x="0px" y="0px"
	 viewBox="-281 165.1 107.6 101.3" enable-background="new -281 165.1 107.6 101.3" xml:space="preserve">
<path fill="#5C9AB5" d="M-278.6,252.4c-1.4,3.9-0.6,8.5,1.7,10.7c1,1,2.4,1.5,4,1.5c2.2,0,4.5-1,6.3-2.7l7-6.8
	c7.4,5.6,18.8,9.7,27.3,9.7c29.1,0,40.8-21.9,41.3-22.9l0.5-1l-0.5-1c-0.5-0.9-12.2-22.9-41.3-22.9c-8.5,0-19.9,4.1-27.3,9.7l-7-6.8
	c-1.8-1.7-4.1-2.7-6.3-2.7c-1.6,0-3,0.5-4,1.5c-2.3,2.2-3,6.8-1.7,10.7l2.2,6.5c0.4,1.3,0.7,3,0.7,4.9c0,1.8-0.3,3.6-0.7,4.9
	L-278.6,252.4z M-229.1,241c0-6.2,5-11.1,11.1-11.1c6.2,0,11.1,5,11.1,11.1c0,6.1-5,11.1-11.1,11.1
	C-224.2,252.1-229.1,247.2-229.1,241z"/>
<circle fill="#5C9AB5" cx="-218" cy="241" r="6.1"/>
<circle fill="#5C9AB5" cx="-182.5" cy="186.4" r="4"/>
<circle fill="#5C9AB5" cx="-186.5" cy="203.5" r="5"/>
<circle fill="#5C9AB5" cx="-187.6" cy="222.8" r="5.7"/>
<circle fill="#5C9AB5" cx="-178.6" cy="170.3" r="4"/>
<circle fill="#6DB6D6" cx="-178.6" cy="170.3" r="2.3"/>
<circle fill="#6DB6D6" cx="-182.6" cy="186.4" r="2.6"/>
<circle fill="#6DB6D6" cx="-186.5" cy="203.5" r="3.7"/>
<circle fill="#6DB6D6" cx="-187.6" cy="222.7" r="3.9"/>
</svg>
