<?xml version="1.0" encoding="utf-8"?>
<!-- Generator: Adobe Illustrator 18.1.0, SVG Export Plug-In . SVG Version: 6.00 Build 0)  -->
<!DOCTYPE svg PUBLIC "-//W3C//DTD SVG 1.1//EN" "http://www.w3.org/Graphics/SVG/1.1/DTD/svg11.dtd">
<svg version="1.1" id="Layer_1" xmlns="http://www.w3.org/2000/svg" xmlns:xlink="http://www.w3.org/1999/xlink" x="0px" y="0px"
	 viewBox="-282 314 692 494.1" enable-background="new -282 314 692 494.1" xml:space="preserve">
<path fill="#E85113" d="M350.8,711.8c0.1-6.8,1.3-15.5,4.3-24.5c2.8-8.6,7-16.8,11-22.3l20.7-27.7c12.8-16.5,16.2-39.7,8.5-53.9
	c-3.2-6.3-9.1-10.9-16.8-13.4c-10.6-3.4-23.1-2.2-34.3,3.1L300,594.6c-26.7-38.4-74.9-75.8-115.6-89.1
	C45.1,460.1-45.1,546.8-49.1,550.8l-4,4l0.8,5.6c1,5.1,22.7,128.7,162,174.1c40.7,13.3,101.7,11.4,145.9-3.8l22.9,43.4
	c5.9,11,15.4,19.4,25.9,22.8c7.7,2.5,15.1,2.3,21.5-0.9c14.4-7,25-27.8,24.9-48.6L350.8,711.8z M61.4,650.4
	c-29.7-9.7-45.4-41.3-35.8-70.5c9.7-29.7,41.3-45.4,70.5-35.8s45.4,41.3,35.8,70.5C122.7,644.4,91.1,660,61.4,650.4z"/>
<circle fill="#333333" stroke="#F9F9F9" stroke-width="12" stroke-linejoin="round" stroke-miterlimit="10" cx="78.8" cy="597.2" r="30.7"/>
<path stroke="#000000" stroke-width="2" stroke-miterlimit="10" d="M-98.7,501.7c-3.1-10.5-11.2-29-29-42
	c19.6,30.1,12.9,62.6,5.6,75.9c6.3-3.1,15.7-12.9,15.7-12.9s7.3,21.3-4.9,45.1c-11.2,21.3-30.1,41.6-66.8,41.6
	c-42.3,0-72.7-36-72.7-86V369.9c0-0.3-0.7-0.7-0.7-1c8-2.4,13.6-9.8,13.6-18.5c0-10.5-8.7-19.2-19.2-19.2
	c-10.5,0-19.2,8.7-19.2,19.2c0,7.7,5.2,14.3,11.5,17.5c-0.3,0.7,0,1.4,0,2.1v153.5c0,57.7,36,100,86.7,100
	c42.7,0,74.8-25.9,82.9-66.1C-90.3,538.1-94.5,517.5-98.7,501.7z M-257.4,341.6c4.9,0,8.7,3.8,8.7,8.7c0,4.9-3.8,8.7-8.7,8.7
	c-4.9,0-8.7-3.8-8.7-8.7S-262.3,341.6-257.4,341.6z"/>
</svg>
