<svg xmlns="http://www.w3.org/2000/svg" xmlns:xlink="http://www.w3.org/1999/xlink" version="1.1" id="Layer_3" x="0px" y="0px" viewBox="0 0 100 100" enable-background="new 0 0 100 100" xml:space="preserve" height="100px" width="100px">
<path d="M74.5,57c-0.9-3-3.2-8.3-8.3-12c5.6,8.6,3.7,17.9,1.6,21.7c1.8-0.9,4.5-3.7,4.5-3.7s2.1,6.1-1.4,12.9  c-3.2,6.1-8.6,11.9-19.1,11.9C39.7,87.8,31,77.5,31,63.2V19.3c0-0.1-0.2-0.2-0.2-0.3c2.3-0.7,3.9-2.8,3.9-5.3c0-3-2.5-5.5-5.5-5.5  s-5.5,2.5-5.5,5.5c0,2.2,1.5,4.1,3.3,5c-0.1,0.2,0,0.4,0,0.6v43.9c0,16.5,10.3,28.6,24.8,28.6c12.2,0,21.4-7.4,23.7-18.9  C76.9,67.4,75.7,61.5,74.5,57z M29.1,11.2c1.4,0,2.5,1.1,2.5,2.5s-1.1,2.5-2.5,2.5s-2.5-1.1-2.5-2.5S27.7,11.2,29.1,11.2z"/>
</svg>