<?xml version="1.0" encoding="utf-8"?>
<!-- Generator: Adobe Illustrator 18.1.0, SVG Export Plug-In . SVG Version: 6.00 Build 0)  -->
<!DOCTYPE svg PUBLIC "-//W3C//DTD SVG 1.1//EN" "http://www.w3.org/Graphics/SVG/1.1/DTD/svg11.dtd">
<svg version="1.1" id="Layer_1" xmlns="http://www.w3.org/2000/svg" xmlns:xlink="http://www.w3.org/1999/xlink" x="0px" y="0px"
	 viewBox="-282 405.9 650.9 315" enable-background="new -282 405.9 650.9 315" xml:space="preserve">
<path fill="#E85113" stroke="#F9F9F9" stroke-width="15" stroke-linejoin="round" stroke-miterlimit="10" d="M346.5,610.1
	c-2-6.5-3.6-15.1-3.6-24.7c0-9,1.5-18.1,3.6-24.7l11.1-32.7c7-19.6,3-42.8-8.6-53.9c-5-5-12.1-7.6-20.1-7.6
	c-11.1,0-22.7,5-31.7,13.6L262,514.4c-37.2-28.2-94.7-48.9-137.5-48.9c-146.5,0-205.5,110.4-208,115.4l-2.5,5l2.5,5
	c2.5,4.5,61.5,115.3,208,115.3c42.8,0,100.2-20.7,137.5-48.9l35.2,34.2c9,8.6,20.7,13.6,31.7,13.6c8.1,0,15.1-2.5,20.1-7.6
	c11.5-11.1,15.1-34.2,8.6-53.9L346.5,610.1z M52.4,641.4c-31.3,0-55.9-25.2-55.9-55.9c0-31.3,25.2-55.9,55.9-55.9
	s55.9,25.2,55.9,55.9C108.8,616.7,83.7,641.4,52.4,641.4z"/>
<circle fill="#333333" stroke="#F9F9F9" stroke-width="12" stroke-linejoin="round" stroke-miterlimit="10" cx="52.4" cy="585.4" r="30.7"/>
<text transform="matrix(1 0 0 1 -290.2285 690.3459)" fill="#4EADCE" stroke="#F9F9F9" stroke-width="8" stroke-linejoin="round" stroke-miterlimit="10" font-family="'BubblegumSans-Regular'" font-size="412.9929">R</text>
</svg>
